{"title":"Junoon 1979 DvDrip 1.36GB ~ A Shyam Benegal Film ~ [RdY]","uid":6682744,"size":1463601152,"categoryP":"video","categoryS":"movies","magnet":"?xt=urn:btih:a2e06cea87a0e788796457da329a7cbebdac3c4d&amp;dn=Junoon+1979+DvDrip+1.36GB+%7E+A+Shyam+Benegal+Film+%7E+%5BRdY%5D&amp;tr=udp%3A%2F%2Ftracker.openbittorrent.com%3A80&amp;tr=udp%3A%2F%2Fopen.demonii.com%3A1337&amp;tr=udp%3A%2F%2Ftracker.coppersurfer.tk%3A6969&amp;tr=udp%3A%2F%2Fexodus.desync.com%3A6969","seeders":0,"leechers":0,"uploader":"ilyas2000pk","files":-1,"time":1316266524,"description":"Color\nC\n\nRelease Date\n1979\n\n\nGenre\nSocial  /  Offbeat  /  Period \n\n\nProducer\nShashi Kapoor\n\n\n\nDirector\nShyam Benegal\n\n\nStar Cast\nShashi Kapoor...... Javed Khan \nJennifer Kendal...... Mrs. Mariam Labadoor (Ruth's Mother)\nNafisa Ali...... Ruth Labadoor \nIsmat\nNaseruddin Shah...... Javed's Brother-in-law \nShabana Azmi...... Firdaus (Javed's Wife)\nJalal Aga...... Kader Khan\nTom Alter...... Priest\nBenjamin Gilani...... Rashid Khan\nGeoffrey Kendal\nKulbhushan Kharbanda...... Lalal Ramjimal\nDeepti Naval...... Rashid's wife\nPearl Padamsee...... Bitter woman\nSushma Seth...... Javed's chachi\nKaran Kapoor\nKunal Shashi Kapoor\nSanjana Kapoor\n\n\n\n\nLyricist\nAmir Khusro\nYogesh\n\n\nMusic Director\nVanraj Bhatia\nJ P Kaushik\n\n\n\nCinematography\nGovind Nihalani\n\n\nSound\nHitendra Ghosh\n\n\nDialogue\nSatyadev Dube\nIsmat Chugtai\n\n\nStory / Writer\nShyam Benegal\n\n\nName : Junoon 1979 DvDrip 1.36GB ~ A Shyam Benegal Film ~ [RdY]\n\nFormat : AVI\n Format/Info : Audio Video Interleave\n File size : 1.36 GiB\n Duration : 2h 20mn\n Overall bit rate : 1 388 Kbps\n Writing application : VirtualDubMod 1.5.10.2 (build 2542/release)\n Writing library : VirtualDubMod build 2542/release\n \nVideo\n ID : 0\n Format : MPEG-4 Visual\n Format profile : AdvancedSimple@L5\n Format settings, BVOP : Yes\n Format settings, QPel : Yes\n Format settings, GMC : No warppoints\n Format settings, Matrix : Default (MPEG)\n Codec ID : XVID\n Codec ID/Hint : XviD\n Duration : 2h 20mn\n Bit rate : 1 187 Kbps\n Width : 640 pixels\n Height : 464 pixels\n Display aspect ratio : 1.379\n Frame rate : 23.976 fps\n Resolution : 24 bits\n Colorimetry : 4.2.0\n Scan type : Progressive\n Bits/(Pixel*Frame) : 0.167\n Stream size : 1.17 GiB (85%)\n Writing library : XviD 1.2.1 (UTC 2008-12-04)\n \nAudio\n ID : 1\n Format : AC-3\n Format/Info : Audio Coding 3\n Codec ID : 2000\n Duration : 2h 20mn\n Bit rate mode : Constant\n Bit rate : 192 Kbps\n Channel(s) : 6 channels\n Channel positions : Front: L C R, Surround: L R, LFE\n Sampling rate : 48.0 KHz\n Stream size : 193 MiB (14%)\n Alignment : Split accross interleaves\n Interleave, duration : 42 ms (1.00 video frame)\n Interleave, preload duration : 500 ms\n \n &lt;a href=&quot;\nhttp://desibbrg.org/images/86226588984810073541.jpg&quot; rel=&quot;nofollow&quot; target=&quot;_NEW&quot;&gt;\nhttp://desibbrg.org/images/86226588984810073541.jpg&lt;/a&gt; &lt;a href=&quot;\nhttp://desibbrg.org/images/51958327095607504180.jpg&quot; rel=&quot;nofollow&quot; target=&quot;_NEW&quot;&gt;\nhttp://desibbrg.org/images/51958327095607504180.jpg&lt;/a&gt; &lt;a href=&quot;\nhttp://desibbrg.org/images/23913868912473926060.jpg&quot; rel=&quot;nofollow&quot; target=&quot;_NEW&quot;&gt;\nhttp://desibbrg.org/images/23913868912473926060.jpg&lt;/a&gt; &lt;a href=&quot;\nhttp://desibbrg.org/images/85898604255883166790.jpg&quot; rel=&quot;nofollow&quot; target=&quot;_NEW&quot;&gt;\nhttp://desibbrg.org/images/85898604255883166790.jpg&lt;/a&gt;\n","torrent":{"xt":"urn:btih:a2e06cea87a0e788796457da329a7cbebdac3c4d","amp;dn":"Junoon+1979+DvDrip+1.36GB+%7E+A+Shyam+Benegal+Film+%7E+%5BRdY%5D","amp;tr":["udp%3A%2F%2Ftracker.openbittorrent.com%3A80","udp%3A%2F%2Fopen.demonii.com%3A1337","udp%3A%2F%2Ftracker.coppersurfer.tk%3A6969","udp%3A%2F%2Fexodus.desync.com%3A6969"],"infoHash":"a2e06cea87a0e788796457da329a7cbebdac3c4d","infoHashBuffer":{"type":"Buffer","data":[162,224,108,234,135,160,231,136,121,100,87,218,50,154,124,190,189,172,60,77]},"announce":[],"urlList":[]}}